<?xml version="1.0" encoding="UTF-8" standalone="no"?>
<svg
   xmlns:dc="http://purl.org/dc/elements/1.1/"
   xmlns:cc="http://creativecommons.org/ns#"
   xmlns:rdf="http://www.w3.org/1999/02/22-rdf-syntax-ns#"
   xmlns:svg="http://www.w3.org/2000/svg"
   xmlns="http://www.w3.org/2000/svg"
   xmlns:xlink="http://www.w3.org/1999/xlink"
   xmlns:sodipodi="http://sodipodi.sourceforge.net/DTD/sodipodi-0.dtd"
   xmlns:inkscape="http://www.inkscape.org/namespaces/inkscape"
   height="435.43112"
   viewBox="0 0 81.109463 115.20774"
   width="306.55545"
   version="1.1"
   id="svg1"
   xml:space="preserve"
   sodipodi:docname="porta_potty_floor.svg"
   inkscape:version="0.92.4 (5da689c313, 2019-01-14)"
   inkscape:export-filename="porta_potty_floor.png"
   inkscape:export-xdpi="96"
   inkscape:export-ydpi="96"><metadata
     id="metadata26"><rdf:RDF><cc:Work
         rdf:about=""><dc:format>image/svg+xml</dc:format><dc:type
           rdf:resource="http://purl.org/dc/dcmitype/StillImage" /><dc:title></dc:title></cc:Work></rdf:RDF></metadata><sodipodi:namedview
     id="namedview9"
     pagecolor="#505050"
     bordercolor="#ffffff"
     borderopacity="1"
     inkscape:pageshadow="0"
     inkscape:pageopacity="0"
     inkscape:pagecheckerboard="1"
     inkscape:document-units="mm"
     showgrid="false"
     inkscape:zoom="1.187909"
     inkscape:cx="-44.837091"
     inkscape:cy="118.27957"
     inkscape:window-width="1920"
     inkscape:window-height="991"
     inkscape:window-x="-9"
     inkscape:window-y="-9"
     inkscape:window-maximized="1"
     inkscape:current-layer="svg1"
     inkscape:showpageshadow="true"
     inkscape:deskcolor="#d1d1d1"
     scale-x="1.1"
     fit-margin-bottom="1000000"
     borderlayer="true" /><defs
     id="defs1"><pattern
       xlink:href="#a"
       id="c"
       patternTransform="matrix(0.15548054,0,0,0.15548055,112.18439,12.700044)" /><pattern
       patternUnits="userSpaceOnUse"
       width="160"
       height="160"
       patternTransform="translate(144.03 218.594) scale(.26458)"
       id="a"><path
         fill="none"
         stroke-width="3.78"
         d="M0 0h160v160H0z"
         id="path9" /><path
         fill="none"
         stroke-width="3.78"
         d="M0 0h160v160H0z"
         id="path11" /><path
         fill="none"
         stroke-width="3.78"
         d="M0 0h160v160H0z"
         id="path13" /><path
         fill="none"
         stroke-width="3.78"
         d="M0 0h160v160H0z"
         id="path15" /><path
         fill="#ad621e"
         stroke-width="3.78"
         d="M0 0h160v160H0z"
         id="path17" /><path
         fill-opacity=".354"
         stroke-width="8.709"
         stroke-miterlimit="10"
         d="M36 0h4v160h-4zm40 0h4v160h-4zm40 0h4v160h-4z"
         id="path19" /><path
         transform="rotate(90)"
         fill-opacity=".354"
         stroke-width="4.131"
         stroke-miterlimit="10"
         d="M36-76h4v36h-4zm120 40h4V0h-4zm-40-80h4v36h-4z"
         id="path21" /><path
         fill-opacity=".354"
         stroke-width="8.709"
         stroke-miterlimit="10"
         d="M156 0h4v160h-4z"
         id="path23" /><path
         transform="rotate(90)"
         fill-opacity=".354"
         stroke-width="4.131"
         stroke-miterlimit="10"
         d="M76-156h4v36h-4z"
         id="path25" /></pattern><pattern
       xlink:href="#b"
       id="d"
       patternTransform="matrix(0.02066936,0.07713911,-0.08541712,0.02288745,26.174506,55.229538)" /><pattern
       patternUnits="userSpaceOnUse"
       width="120"
       height="120"
       patternTransform="translate(148.263 278.92) scale(.26458)"
       id="b"><path
         fill="#816348"
         stroke-width="14.173"
         stroke-miterlimit="10"
         d="M0 0h120v120H0z"
         id="path4" /><path
         fill-opacity=".354"
         stroke-width="7.542"
         stroke-miterlimit="10"
         d="M36 0h4v120h-4zm40 0h4v120h-4zm40 0h4v120h-4z"
         id="path6" /></pattern></defs><path
     inkscape:connector-curvature="0"
     style="fill:url(#c);stroke-width:1.00000358"
     d="M 1.8080897e-4,1.755835e-4 H 81.109468 l 10e-7,100.1138644165 -81.10928819103,-2e-4 z"
     id="path30"
     sodipodi:nodetypes="ccccc" /><path
     inkscape:connector-curvature="0"
     style="fill:#d8b494;fill-opacity:0.39500002;stroke-width:1.00000358"
     d="m 23.691295,92.278295 v 7.835365 L 1.8080897e-4,100.11385 V 1.755835e-4 H 81.109468 V 100.11385 l 10e-7,-1e-5 -7.835761,-1.8e-4 L 72.99853,88.990134 73.27382,7.8356437 H 7.8429084 V 92.278426 Z"
     id="path32"
     sodipodi:nodetypes="ccccccccccccc" /><path
     inkscape:connector-curvature="0"
     style="fill:url(#d);stroke:#343434;stroke-width:1.45700002;stroke-miterlimit:4;stroke-dasharray:none;stroke-opacity:1;paint-order:stroke fill markers"
     d="m 48.651648,109.11097 -15.289752,3.99617 -1.644967,-5.98818 15.289752,-3.99614 z"
     id="path34" /><path
     inkscape:connector-curvature="0"
     style="fill:#333333;stroke-width:1.00000358"
     d="m 37.227272,110.13641 2.724345,-0.80988 0.181844,0.7559 -2.723678,0.80988 z"
     id="path36" /><path
     inkscape:connector-curvature="0"
     style="fill:#040404;stroke-width:1.00000358"
     d="m 47.006046,105.77919 a 2.2066089,2.1283614 0 0 0 -2.746441,-1.43011 2.2066089,2.1283614 0 0 0 -1.482707,2.64849 2.2066089,2.1283614 0 0 0 0.255561,0.53643 2.2066089,2.1283614 0 0 1 1.572771,-2.06863 2.2066089,2.1283614 0 0 1 2.490882,0.89423 2.2066089,2.1283614 0 0 0 -0.09007,-0.58041 z"
     id="path38" /></svg>