<?xml version="1.0" encoding="UTF-8" standalone="no"?>
<!-- Created with Inkscape (http://www.inkscape.org/) -->

<svg
   xmlns:dc="http://purl.org/dc/elements/1.1/"
   xmlns:cc="http://creativecommons.org/ns#"
   xmlns:rdf="http://www.w3.org/1999/02/22-rdf-syntax-ns#"
   xmlns:svg="http://www.w3.org/2000/svg"
   xmlns="http://www.w3.org/2000/svg"
   xmlns:sodipodi="http://sodipodi.sourceforge.net/DTD/sodipodi-0.dtd"
   xmlns:inkscape="http://www.inkscape.org/namespaces/inkscape"
   width="879.5733"
   height="1602.1925"
   viewBox="0 0 232.72044 423.91342"
   version="1.1"
   id="svg5"
   xml:space="preserve"
   sodipodi:docname="warehouse_ceiling.svg"
   inkscape:version="0.92.4 (5da689c313, 2019-01-14)"><metadata
     id="metadata31"><rdf:RDF><cc:Work
         rdf:about=""><dc:format>image/svg+xml</dc:format><dc:type
           rdf:resource="http://purl.org/dc/dcmitype/StillImage" /><dc:title></dc:title></cc:Work></rdf:RDF></metadata><sodipodi:namedview
     id="namedview1"
     pagecolor="#ffffff"
     bordercolor="#000000"
     borderopacity="0.25"
     inkscape:showpageshadow="2"
     inkscape:pageopacity="0.0"
     inkscape:pagecheckerboard="0"
     inkscape:deskcolor="#d1d1d1"
     inkscape:document-units="mm"
     inkscape:zoom="0.76520146"
     inkscape:cx="725.62801"
     inkscape:cy="270.40493"
     inkscape:window-width="1920"
     inkscape:window-height="991"
     inkscape:window-x="-9"
     inkscape:window-y="-9"
     inkscape:window-maximized="1"
     inkscape:current-layer="svg5"
     showgrid="false" /><defs
     id="defs2"><clipPath
       clipPathUnits="userSpaceOnUse"
       id="clipPath3"><path
         d="M 1.0583058,1.0583333 V 451.61274 H 247.44948 V 1.0583333 Z M 35.602966,44.357525 H 85.110505 V 68.329204 96.681867 H 65.694822 V 68.329204 H 35.602966 Z M 132.15759,188.18762 h 44.11903 v 23.97168 h -22.36364 v 28.35267 h -21.75539 z m 26.71804,167.80179 h 25.47093 v -23.97167 h 23.83353 v 52.32432 H 158.87563 Z M 44.299463,284.07434 h 43.30465 v 47.94364 28.35267 H 66.119595 V 336.39866 H 29.029536 V 308.04601 H 44.299463 Z M 190.59533,120.65355 H 151.71639 V 96.681869 h 16.7689 V 68.329204 h 44.01967 v 28.352663 h -21.90963 z"
         style="fill:#5f5f63;stroke:#333333;stroke-width:2.11667"
         id="path4" /></clipPath><clipPath
       id="a"><path
         style="fill:#814e3a;stroke-width:171.66799927;stroke-miterlimit:10"
         inkscape:connector-curvature="0"
         d="M 0,432 V 864 H 1664 V 432 Z m 448,64 h 144 v 48 h 32 v 96 h -96 v 32 h -80 v -64 h -32 v -80 h 32 z m 896,16 h 112 v 80 h 32 v 160 h -96 v -48 h -48 v -96 h -48 v -64 h 48 z M 128,576 h 80 v 32 h 32 v 96 h -32 v 64 H 144 V 736 H 112 V 656 H 96 v -64 h 32 z m 832,32 h 176 v 32 h 64 v 80 h -192 v 48 H 864 v -32 h -96 v -64 h 48 v -32 h 144 z"
         stroke-miterlimit="10"
         id="path2" /></clipPath><clipPath
       id="b"><path
         style="fill:#814e3a;stroke-width:171.66799927;stroke-miterlimit:10"
         inkscape:connector-curvature="0"
         stroke-miterlimit="10"
         d="M 0,-135 H 1664 V 297 H 0 Z"
         id="path5" /></clipPath><clipPath
       id="c"><path
         style="fill:#814e3a;stroke-width:80.83899689;stroke-miterlimit:10"
         inkscape:connector-curvature="0"
         d="M 0,0 V 432 H 1664 V 0 Z m 800,80 h 96 v 16 h 32 v 96 h -80 v 48 h -80 v -32 h -96 v -80 h 80 V 96 h 48 z m -656,6 h 48 v 16 h 128 v 48 h 128 v 96 h -32 v 96 H 240 V 310 H 112 v -64 h 64 v -48 h -32 z m 1122,18 h 208 v 32 h 48 v 112 h -48 v 64 h -192 v -32 h -80 v -80 h -32 v -80 h 96 z"
         stroke-miterlimit="10"
         id="path8" /></clipPath><clipPath
       id="d"><path
         style="fill:#814e3a;stroke-width:171.66799927;stroke-miterlimit:10"
         inkscape:connector-curvature="0"
         stroke-miterlimit="10"
         d="M 0,-135 H 1664 V 297 H 0 Z"
         id="path11" /></clipPath></defs><path
     inkscape:connector-curvature="0"
     style="fill:#814e3a;stroke:#191919;stroke-width:8.08671474;stroke-miterlimit:10"
     d="M 0,432 V 864 H 1664 V 432 Z m 448,64 h 144 v 48 h 32 v 96 h -96 v 32 h -80 v -64 h -32 v -80 h 32 z m 896,16 h 112 v 80 h 32 v 160 h -96 v -48 h -48 v -96 h -48 v -64 h 48 z M 128,576 h 80 v 32 h 32 v 96 h -32 v 64 H 144 V 736 H 112 V 656 H 96 v -64 h 32 z m 832,32 h 176 v 32 h 64 v 80 h -192 v 48 H 864 v -32 h -96 v -64 h 48 v -32 h 144 z"
     clip-path="url(#a)"
     stroke-miterlimit="10"
     id="path16"
     transform="matrix(-4.2336949e-4,-0.25468611,0.26900111,-4.9851874e-4,1.3596338,424.07093)" /><path
     inkscape:connector-curvature="0"
     style="fill:#814e3a;fill-opacity:0.4;stroke-width:0.26458332"
     d="m 160.56763,399.32594 17.21607,-0.0319 -0.007,-4.07498 21.52008,-0.0399 -0.0136,-8.14995 8.60804,-0.016 -0.0271,-16.29991 -17.21607,0.0319 -0.0136,-8.14996 -25.8241,0.0479 0.0136,8.14996 -8.60805,0.016 0.0339,20.37489 4.30402,-0.008 z m -17.35154,-81.46766 21.52008,-0.0399 -0.0136,-8.14994 17.21607,-0.0322 -0.0339,-20.37491 -8.60804,0.0161 -0.0406,-24.44987 -25.82412,0.0479 0.0136,8.14994 -12.91205,0.0236 0.061,36.67481 8.60804,-0.0161 z m 38.58712,-89.7213 17.21607,-0.0322 -0.0406,-24.44986 8.60805,-0.0161 -0.061,-36.67481 -12.91206,0.0237 -0.0813,-48.89974 -21.5201,0.0399 0.0271,16.29991 -8.60803,0.0161 0.0745,44.82475 8.60803,-0.0161 0.061,36.67481 8.60804,-0.0161 z"
     id="path18" /><path
     inkscape:connector-curvature="0"
     style="fill:#814e3a;fill-opacity:0.39500002;stroke-width:0.26458332"
     d="m 138.47176,52.992709 0.0474,28.52484 8.60803,-0.0161 0.0204,12.22494 17.21607,-0.0322 -0.0204,-12.22494 25.82412,-0.0479 -0.0204,-12.22493 12.91205,-0.0236 -0.0406,-24.44986 -43.04018,0.0798 0.0136,8.14997 z"
     id="path20" /><path
     inkscape:connector-curvature="0"
     style="fill:none;stroke:#191919;stroke-width:16.17241669;stroke-miterlimit:10"
     clip-path="url(#b)"
     stroke-miterlimit="10"
     d="M 0,-135 H 1664 V 297 H 0 Z"
     transform="matrix(-4.2336949e-4,-0.25468611,0.26900111,-4.9851874e-4,153.88325,423.78827)"
     id="path22" /><path
     inkscape:connector-curvature="0"
     style="fill:#905741;stroke:#191919;stroke-width:8.08671474;stroke-miterlimit:10"
     d="M 0,0 V 432 H 1664 V 0 Z m 800,80 h 96 v 16 h 32 v 96 h -80 v 48 h -80 v -32 h -96 v -80 h 80 V 96 h 48 z m -656,6 h 48 v 16 h 128 v 48 h 128 v 96 h -32 v 96 H 240 V 310 H 112 v -64 h 64 v -48 h -32 z m 1122,18 h 208 v 32 h 48 v 112 h -48 v 64 h -192 v -32 h -80 v -80 h -32 v -80 h 96 z"
     clip-path="url(#c)"
     stroke-miterlimit="10"
     id="path24"
     transform="matrix(-4.2336949e-4,-0.25468611,0.26900111,-4.9851874e-4,1.3596338,424.07093)" /><path
     inkscape:connector-curvature="0"
     style="fill:#814e3a;fill-opacity:0.4;stroke-width:0.26458332"
     d="m 33.144393,126.02836 21.52011,-0.0399 -0.0135,-8.14995 21.52009,-0.0398 -0.0343,-20.374901 8.60803,-0.0161 -0.0813,-48.89974 -17.21606,0.0322 -0.0198,-12.22492 -30.12812,0.0558 0.0208,12.22494 -8.60804,0.0161 0.0881,52.974721 4.30402,-0.009 z m -8.71164,261.32489 30.12812,-0.0558 -0.0135,-8.14996 12.91206,-0.024 0.027,16.29991 17.21606,-0.0319 -0.0541,-32.59982 8.60802,-0.016 -0.0746,-44.82476 -25.8241,0.0479 -0.0135,-8.14996 -25.8241,0.0479 0.0541,32.59981 -12.91206,0.024 0.0541,32.59982 -4.30401,0.008 z m 11.07449,-134.4952 21.52008,-0.0398 -0.0405,-24.44986 8.60804,-0.0161 -0.0343,-20.37487 -12.91205,0.0237 -0.0343,-20.3749 -25.82412,0.0479 0.0135,8.14996 -4.30401,0.009 0.0405,24.44986 4.30403,-0.009 0.0198,12.22493 8.60803,-0.0161 z"
     id="path26" /><path
     inkscape:connector-curvature="0"
     style="fill:none;stroke:#191919;stroke-width:16.17342949;stroke-miterlimit:10"
     transform="matrix(-4.2336949e-4,-0.25468611,0.26900111,-4.9851874e-4,37.674773,424.00363)"
     clip-path="url(#d)"
     stroke-miterlimit="10"
     d="M 0,-135 H 1664 V 297 H 0 Z"
     id="path28" /></svg>