<?xml version="1.0" encoding="UTF-8" standalone="no"?>
<svg
   xmlns:dc="http://purl.org/dc/elements/1.1/"
   xmlns:cc="http://creativecommons.org/ns#"
   xmlns:rdf="http://www.w3.org/1999/02/22-rdf-syntax-ns#"
   xmlns:svg="http://www.w3.org/2000/svg"
   xmlns="http://www.w3.org/2000/svg"
   xmlns:sodipodi="http://sodipodi.sourceforge.net/DTD/sodipodi-0.dtd"
   xmlns:inkscape="http://www.inkscape.org/namespaces/inkscape"
   version="1.1"
   width="165"
   height="165"
   viewBox="0 0 165 165"
   xml:space="preserve"
   id="svg218"
   sodipodi:docname="bush.svg"
   inkscape:version="0.92.4 (5da689c313, 2019-01-14)"><metadata
   id="metadata24"><rdf:RDF><cc:Work
       rdf:about=""><dc:format>image/svg+xml</dc:format><dc:type
         rdf:resource="http://purl.org/dc/dcmitype/StillImage" /></cc:Work></rdf:RDF></metadata><sodipodi:namedview
   id="namedview220"
   pagecolor="#505050"
   bordercolor="#eeeeee"
   borderopacity="1"
   inkscape:showpageshadow="0"
   inkscape:pageopacity="0"
   inkscape:pagecheckerboard="true"
   inkscape:deskcolor="#505050"
   showgrid="false"
   inkscape:zoom="3.9999998"
   inkscape:cx="19.875001"
   inkscape:cy="76.500004"
   inkscape:window-width="1920"
   inkscape:window-height="991"
   inkscape:window-x="-9"
   inkscape:window-y="-9"
   inkscape:window-maximized="1"
   inkscape:current-layer="svg218"
   showguides="true"
   inkscape:pageshadow="0" />
<desc
   id="desc181">Created with Fabric.js 5.3.0</desc>
<defs
   id="defs183" />

<path
   inkscape:connector-curvature="0"
   style="fill:#243c0c;stroke-width:3.77952766"
   d="m 145.57296,137.13141 c -0.99845,1.08674 -8.34347,2.90762 -9.4556,3.84946 -1.11706,0.93699 -6.37127,9.41836 -7.60204,10.23945 -1.22581,0.81143 -7.10282,-1.20748 -8.4176,-0.54577 -1.31974,0.65685 -6.40588,5.89251 -7.76516,6.4238 -1.36421,0.52163 -7.5872,1.09157 -9.02556,1.39102 -1.44331,0.30428 -7.488358,6.13885 -8.956367,6.32238 -1.46802,0.16905 -10.795097,-3.71904 -12.258168,-3.74319 -1.468014,-0.0193 -6.218058,0.89836 -7.661355,0.6955 -1.453184,-0.1932 -8.684514,-2.17829 -10.103093,-2.52122 -1.418594,-0.33809 -7.651469,0.80177 -9.030515,0.28979 -1.374102,-0.51197 -7.95792,-6.51557 -9.238106,-7.2304 -1.275244,-0.71 -8.570829,-1.42483 -9.771931,-2.24591 -1.206046,-0.8211 -2.654289,-7.95491 -3.726877,-8.95954 -1.072591,-1.00946 -8.116092,-3.00421 -9.065111,-4.10543 -0.944077,-1.1109 -1.715155,-9.08028 -2.575203,-10.24912 -0.860049,-1.17367 -9.020623,-5.24047 -9.687904,-6.5494 -0.662335,-1.31373 -1.3889287,-7.66027 -1.8634367,-9.0223 -0.4745103,-1.36688 -3.6922791,-8.52484 -4.0333325,-9.94967 -0.3410524,-1.415167 2.6196894,-7.525033 2.4812905,-8.983672 -0.1383989,-1.45381 -6.87050289,-7.017892 -6.86061749,-8.481362 0,-1.4683 3.81584709,-8.548981 4.03827459,-9.997961 C 5.2120316,72.308884 2.79994,63.421808 3.1311092,62.001808 c 0.3311681,-1.41517 7.3894968,-5.11973 7.8936628,-6.50592 0.504167,-1.376531 -1.7942376,-9.949661 -1.1368448,-11.268233 0.6573928,-1.313743 9.2578798,-5.08109 10.0981568,-6.264422 0.840277,-1.183335 2.244035,-8.597282 3.202938,-9.693676 0.953963,-1.091565 8.506573,-1.333063 9.638476,-2.270069 1.131903,-0.932177 3.020056,-11.475921 4.211273,-12.350138 1.196158,-0.869389 10.562781,1.999592 11.862739,1.304081 1.304901,-0.700339 6.227942,-7.8534707 7.58227,-8.379934 1.35433,-0.5312926 7.597092,2.4439462 9.020628,2.1058508 1.43341,-0.3380954 7.686059,-8.11428688 9.144186,-8.24469475 1.458128,-0.12075063 7.172022,5.94564675 8.635093,5.96496645 1.463071,0.014492 9.663182,-4.7140146 11.101545,-4.4966674 1.438351,0.2221766 5.417316,6.9019743 6.840848,7.2255794 1.42848,0.3187757 11.10648,-4.2986397 12.47565,-3.7963264 1.36916,0.5023119 4.33977,8.7566689 5.61007,9.4521789 1.27526,0.69551 8.74384,-0.787279 9.95977,0.02415 1.22087,0.81143 4.30519,10.466465 5.37778,11.446942 1.07259,0.980476 9.81147,2.371497 10.79509,3.438911 0.97868,1.062585 0.22243,7.496056 1.0281,8.69388 0.81062,1.202652 10.57267,4.057143 11.23996,5.356396 0.66233,1.299251 -2.31324,9.147892 -1.76459,10.480954 0.54865,1.342721 5.73366,8.259185 6.10931,9.679186 0.3806,1.41517 -1.08742,9.452178 -0.93419,10.915649 0.14829,1.463468 3.38583,7.013062 3.42042,8.486191 0.0395,1.468299 -3.82573,8.476532 -4.03333,9.915852 -0.21254,1.43449 2.04138,8.848435 1.67067,10.258785 -0.36577,1.41034 -3.72193,6.35136 -4.26563,7.70374 -0.54372,1.35239 -1.7992,9.07061 -2.48626,10.36503 -0.69198,1.29443 -5.86215,5.04246 -6.65796,6.26443 -0.79084,1.21712 -2.20448,8.22536 -3.19798,9.31209 z"
   id="path2" /><path
   inkscape:connector-curvature="0"
   style="fill:#3b5b1f;stroke-width:3.77952766"
   d="m 139.11764,93.792427 c -0.59313,2.603333 -9.74721,6.776393 -10.889,9.191363 -1.13685,2.41014 3.44513,6.77639 1.95735,8.88708 -1.49273,2.10584 -9.25294,4.13924 -11.10648,6.0181 -1.85357,1.86918 -3.26226,9.14788 -5.48653,10.57754 -2.22426,1.42966 -7.57239,-1.2751 -9.97459,-0.15938 -2.40221,1.11571 -7.147287,9.41836 -9.81147,9.89652 -2.664167,0.483 -6.865556,-6.48176 -9.514906,-6.49626 -2.654292,-0.0144 -10.918666,6.74741 -13.464203,6.09538 -2.550494,-0.64721 -2.79764,-8.01769 -5.338233,-9.03198 -2.530721,-1.00945 -11.986317,1.37171 -14.235292,0.0193 -2.258863,-1.34756 -3.400652,-8.12878 -5.26409,-10.07041 -1.863439,-1.94163 -8.303917,-4.66572 -9.885616,-6.76191 -1.581699,-2.08653 2.461519,-8.31714 1.453186,-10.79973 -1.013276,-2.482582 -7.661353,-5.549589 -8.056778,-8.206052 -0.400368,-2.656463 1.463072,-8.563471 1.482842,-11.147485 0.02472,-2.579184 -3.326509,-9.312111 -2.866828,-11.862316 0.459682,-2.555034 6.504736,-3.767348 7.49824,-6.138845 0.998447,-2.376326 -0.0346,-10.432654 1.349387,-12.702722 1.379043,-2.260409 8.368173,-5.119731 10.345296,-6.824696 1.977123,-1.709797 0.29657,-5.969798 2.407148,-7.476737 2.105632,-1.511768 12.307595,0.893539 14.828428,0.06762 2.53072,-0.825918 5.264082,-9.176872 7.893656,-9.659865 2.624633,-0.482993 8.116099,5.298435 10.755562,5.245307 2.634505,-0.0483 6.143906,-6.119526 8.803128,-5.675172 2.664182,0.449184 7.498245,7.621635 9.994363,8.606941 2.49117,0.990136 9.03544,1.506938 11.16087,3.091157 2.12541,1.574557 2.32311,7.027552 4.25082,8.829118 1.9178,1.796734 12.38172,2.270067 13.7756,4.564285 1.39881,2.28939 -1.35927,10.007622 -0.24221,12.374288 1.11708,2.366669 7.63171,5.554424 8.05679,8.206058 0.43002,2.651632 -6.64809,9.104423 -6.58876,11.770545 0.0544,2.661294 7.29559,6.969594 6.70738,9.572927 z"
   id="path4" /><path
   inkscape:connector-curvature="0"
   style="fill:#80a460;stroke-width:3.77952766"
   d="m 104.50316,101.41406 c -0.93419,0.97565 -6.475076,0.59891 -7.606984,1.34755 -1.126967,0.74381 0.459683,3.28436 -0.716716,3.81565 -1.171436,0.53129 -5.244305,0.01 -6.519552,0.38639 -1.270303,0.36708 -3.939426,2.85449 -5.264094,2.9366 -1.324668,0.0725 -2.540608,-2.05272 -3.860332,-2.11551 -1.319725,-0.0676 -5.96597,2.38599 -7.246159,1.94164 -1.280191,-0.43953 -0.825448,-4.55946 -1.962292,-5.20667 -1.136844,-0.64238 -7.132475,0.23183 -8.037004,-0.67619 -0.904542,-0.91769 1.482846,-3.81082 0.627737,-4.863745 -0.855107,-1.052926 -5.906661,-2.675784 -6.554171,-3.777008 -0.652441,-1.101224 0.19771,-4.187551 -0.09887,-5.486804 -0.296567,-1.299252 -1.715147,-4.395239 -1.89804,-5.670342 -0.187825,-1.270272 3.227664,-2.622653 3.430319,-3.941224 0.19771,-1.323402 -1.739877,-4.144083 -1.196166,-5.385375 0.538768,-1.241293 2.075977,-3.873607 2.738318,-4.965173 0.667284,-1.096394 1.556983,-4.752653 2.387374,-5.742788 0.830391,-0.990136 3.232595,0.164217 4.25081,-0.608573 1.023172,-0.772789 3.14857,-4.400068 4.305187,-5.076259 1.161562,-0.676191 5.051554,-0.965987 6.34163,-1.183333 1.285121,-0.217348 0.815562,-1.883674 2.090808,-2.057552 1.275248,-0.169049 5.743542,3.535511 7.033619,3.830137 1.290064,0.294625 4.656119,-2.926939 5.911591,-2.497076 1.260419,0.434695 2.090801,4.260001 3.242484,4.854083 1.156612,0.594082 3.810902,-1.564898 4.863713,-0.743811 1.05776,0.82109 1.71021,5.259799 2.54554,6.283745 0.84028,1.023945 2.90145,3.458232 3.38089,4.660884 0.47945,1.202654 -0.46957,3.091158 -0.0839,4.31796 0.39048,1.226804 5.2641,4.33245 5.25421,5.665512 -0.0101,1.337891 -3.15846,4.119932 -3.24743,5.404694 -0.0889,1.284762 1.71515,4.134424 1.19615,5.380547 -0.51898,1.250951 -5.6348,2.337686 -6.27736,3.51136 -0.64257,1.173673 1.90298,4.685031 0.9688,5.660681 z"
   id="path6" /></svg>