<?xml version="1.0" encoding="UTF-8" standalone="no"?>
<svg
   xmlns:dc="http://purl.org/dc/elements/1.1/"
   xmlns:cc="http://creativecommons.org/ns#"
   xmlns:rdf="http://www.w3.org/1999/02/22-rdf-syntax-ns#"
   xmlns:svg="http://www.w3.org/2000/svg"
   xmlns="http://www.w3.org/2000/svg"
   xmlns:sodipodi="http://sodipodi.sourceforge.net/DTD/sodipodi-0.dtd"
   xmlns:inkscape="http://www.inkscape.org/namespaces/inkscape"
   height="172"
   viewBox="0 0 76.2 45.508335"
   width="288"
   version="1.1"
   id="svg11"
   sodipodi:docname="porta_potty_toilet_open.svg"
   inkscape:version="0.92.4 (5da689c313, 2019-01-14)">
  <metadata
     id="metadata14">
    <rdf:RDF>
      <cc:Work
         rdf:about="">
        <dc:format>image/svg+xml</dc:format>
        <dc:type
           rdf:resource="http://purl.org/dc/dcmitype/StillImage" />
        <dc:title></dc:title>
      </cc:Work>
    </rdf:RDF>
  </metadata>
  <sodipodi:namedview
     id="namedview1"
     pagecolor="#ffffff"
     bordercolor="#000000"
     borderopacity="0.25"
     inkscape:showpageshadow="2"
     inkscape:pageopacity="0.0"
     inkscape:pagecheckerboard="0"
     inkscape:deskcolor="#d1d1d1"
     inkscape:document-units="mm"
     inkscape:zoom="2.9042696"
     inkscape:cx="72.995983"
     inkscape:cy="66.626046"
     inkscape:window-width="1920"
     inkscape:window-height="991"
     inkscape:window-x="-9"
     inkscape:window-y="-9"
     inkscape:window-maximized="1"
     inkscape:current-layer="svg11"
     showgrid="false" />
  <defs
     id="defs11">
    <clipPath
       id="a">
      <path
         style="fill:#ffffff;stroke-width:12.14400005"
         inkscape:connector-curvature="0"
         d="m 32.808,274.775 h 16.933 v 8.467 H 32.808 Z"
         id="path2" />
    </clipPath>
    <clipPath
       id="b">
      <path
         style="fill:#424242;stroke-width:3.77200007"
         inkscape:connector-curvature="0"
         d="m 16.933,264.192 c 4.586,0 12.7,2.116 12.7,5.291 v 3.175 c 0,1.059 -0.944,2.117 -2.116,2.117 H 6.35 c -1.17,-0.073 -2.117,-1.058 -2.117,-2.117 v -3.175 c 0,-3.175 8.114,-5.291 12.7,-5.291 z"
         id="path11" />
    </clipPath>
    <clipPath
       id="c">
      <path
         style="fill:#939393;stroke-width:2.96000004"
         inkscape:connector-curvature="0"
         d="m 52.917,283.242 c 0,5.261 -3.83,12.166 -8.625,12.166 -4.795,0 -8.625,-6.905 -8.625,-12.166 0,-5.262 3.861,-9.518 8.625,-9.518 4.763,0 8.625,4.256 8.625,9.518 z"
         id="path5" />
    </clipPath>
    <clipPath
       id="d">
      <path
         style="fill:#939393;stroke-width:2.96000004"
         inkscape:connector-curvature="0"
         d="m 61.383,253.608 c 0,5.262 -3.83,12.167 -8.625,12.167 -4.794,0 -8.624,-6.905 -8.624,-12.167 0,-5.261 3.861,-9.517 8.624,-9.517 4.764,0 8.625,4.256 8.625,9.517 z"
         id="path8" />
    </clipPath>
  </defs>
  <g
     transform="matrix(1.451911,0,0,1.3832247,14.406235,-364.56807)"
     id="g28"
     style="stroke-width:0.70563376">
    <path
       style="fill:#ffffff;stroke:#2d2d2d;stroke-width:2.2403872"
       inkscape:connector-curvature="0"
       clip-path="url(#a)"
       transform="matrix(1,0,0,1.79831,-24.342,-226.235)"
       d="m 32.808,274.775 h 16.933 v 8.467 H 32.808 Z"
       id="path16" />
    <path
       style="fill:#fefefe;stroke:#2d2d2d;stroke-width:2.2403872"
       inkscape:connector-curvature="0"
       d="m 16.933,264.192 c 4.586,0 12.7,2.116 12.7,5.291 v 3.175 c 0,1.059 -0.944,2.117 -2.116,2.117 H 6.35 c -1.17,-0.073 -2.117,-1.058 -2.117,-2.117 v -3.175 c 0,-3.175 8.114,-5.291 12.7,-5.291 z"
       clip-path="url(#b)"
       transform="translate(0,-0.53)"
       id="path18" />
    <path
       style="fill:#bdbdbd;stroke:#ffffff;stroke-width:5.97460079"
       inkscape:connector-curvature="0"
       d="m 52.917,283.242 c 0,5.261 -3.83,12.166 -8.625,12.166 -4.795,0 -8.625,-6.905 -8.625,-12.166 0,-5.262 3.861,-9.518 8.625,-9.518 4.763,0 8.625,4.256 8.625,9.518 z"
       clip-path="url(#c)"
       transform="translate(-27.358,1.058)"
       id="path20" />
    <path
       style="fill:#2d2d2d;stroke-width:0.70563376"
       inkscape:connector-curvature="0"
       d="m 18.468,283.77 c 0,1.193 -0.687,2.767 -1.535,2.767 -0.847,0 -1.535,-1.574 -1.535,-2.766 0,-1.192 0.688,-1.55 1.535,-1.55 0.848,0 1.535,0.358 1.535,1.55 z"
       id="path22" />
    <path
       style="fill:none;stroke:#2d2d2d;stroke-width:2.08867598"
       inkscape:connector-curvature="0"
       d="m 61.383,253.608 c 0,5.262 -3.83,12.167 -8.625,12.167 -4.794,0 -8.624,-6.905 -8.624,-12.167 0,-5.261 3.861,-9.517 8.624,-9.517 4.764,0 8.625,4.256 8.625,9.517 z"
       clip-path="url(#d)"
       transform="translate(-35.825,30.692)"
       id="path24" />
    <rect
       style="fill:#5f3f14;stroke-width:0.70563376"
       width="1.753"
       height="6.3499999"
       x="124.603"
       y="-258.013"
       ry="1.4985338"
       rx="0.60543668"
       transform="rotate(150)"
       id="rect26" />
  </g>
</svg>
