<?xml version="1.0" encoding="UTF-8" standalone="no"?>
<svg
   xmlns:dc="http://purl.org/dc/elements/1.1/"
   xmlns:cc="http://creativecommons.org/ns#"
   xmlns:rdf="http://www.w3.org/1999/02/22-rdf-syntax-ns#"
   xmlns:svg="http://www.w3.org/2000/svg"
   xmlns="http://www.w3.org/2000/svg"
   xmlns:sodipodi="http://sodipodi.sourceforge.net/DTD/sodipodi-0.dtd"
   xmlns:inkscape="http://www.inkscape.org/namespaces/inkscape"
   height="172.41629"
   viewBox="0 0 76.411761 45.618462"
   width="288.80042"
   version="1.1"
   id="svg11"
   sodipodi:docname="porta_potty_toilet_closed.svg"
   inkscape:version="0.92.4 (5da689c313, 2019-01-14)">
  <metadata
     id="metadata15">
    <rdf:RDF>
      <cc:Work
         rdf:about="">
        <dc:format>image/svg+xml</dc:format>
        <dc:type
           rdf:resource="http://purl.org/dc/dcmitype/StillImage" />
        <dc:title></dc:title>
      </cc:Work>
    </rdf:RDF>
  </metadata>
  <sodipodi:namedview
     id="namedview1"
     pagecolor="#ffffff"
     bordercolor="#000000"
     borderopacity="0.25"
     inkscape:showpageshadow="2"
     inkscape:pageopacity="0.0"
     inkscape:pagecheckerboard="0"
     inkscape:deskcolor="#d1d1d1"
     inkscape:document-units="mm"
     inkscape:zoom="2.9042696"
     inkscape:cx="72.995983"
     inkscape:cy="66.626046"
     inkscape:window-width="1920"
     inkscape:window-height="991"
     inkscape:window-x="-9"
     inkscape:window-y="-9"
     inkscape:window-maximized="1"
     inkscape:current-layer="svg11"
     showgrid="false" />
  <defs
     id="defs11">
    <clipPath
       id="a-2">
      <path
         style="fill:#ffffff;stroke-width:12.14400005"
         inkscape:connector-curvature="0"
         d="m 32.808,274.775 h 16.933 v 8.467 H 32.808 Z"
         id="path2" />
    </clipPath>
    <clipPath
       id="b">
      <path
         style="fill:#424242;stroke-width:3.77200007"
         inkscape:connector-curvature="0"
         d="m 16.933,264.192 c 4.586,0 12.7,2.116 12.7,5.291 v 3.175 c 0,1.059 -0.944,2.117 -2.116,2.117 H 6.35 c -1.17,-0.073 -2.117,-1.058 -2.117,-2.117 v -3.175 c 0,-3.175 8.114,-5.291 12.7,-5.291 z"
         id="path11" />
    </clipPath>
    <clipPath
       id="c">
      <path
         style="fill:#939393;stroke-width:2.96000004"
         inkscape:connector-curvature="0"
         d="m 52.917,283.242 c 0,5.261 -3.83,12.166 -8.625,12.166 -4.795,0 -8.625,-6.905 -8.625,-12.166 0,-5.262 3.861,-9.518 8.625,-9.518 4.763,0 8.625,4.256 8.625,9.518 z"
         id="path5" />
    </clipPath>
    <clipPath
       id="d">
      <path
         style="fill:#939393;stroke-width:2.96000004"
         inkscape:connector-curvature="0"
         d="m 61.383,253.608 c 0,5.262 -3.83,12.167 -8.625,12.167 -4.794,0 -8.624,-6.905 -8.624,-12.167 0,-5.261 3.861,-9.517 8.624,-9.517 4.764,0 8.625,4.256 8.625,9.517 z"
         id="path8" />
    </clipPath>
  </defs>
  <radialGradient
     id="a"
     cx="131.74458"
     cy="131.6519"
     gradientUnits="userSpaceOnUse"
     r="29.14535">
    <stop
       offset="0"
       stop-color="#373d73"
       id="stop1" />
    <stop
       offset="1"
       stop-color="#161d31"
       id="stop2" />
  </radialGradient>
  <path
     inkscape:connector-curvature="0"
     style="fill:#ffffff;stroke:#2d2d2d;stroke-width:2.25025678"
     clip-path="url(#a-2)"
     transform="matrix(1.4339777,0,0,2.496531,-20.150433,-679.86159)"
     d="m 32.808,274.775 h 16.933 v 8.467 H 32.808 Z"
     id="path16" />
  <path
     inkscape:connector-curvature="0"
     style="fill:#fefefe;stroke:#2d2d2d;stroke-width:2.25025678"
     d="m 16.933,264.192 c 4.586,0 12.7,2.116 12.7,5.291 v 3.175 c 0,1.059 -0.944,2.117 -2.116,2.117 H 6.35 c -1.17,-0.073 -2.117,-1.058 -2.117,-2.117 v -3.175 c 0,-3.175 8.114,-5.291 12.7,-5.291 z"
     clip-path="url(#b)"
     transform="matrix(1.4339777,0,0,1.3882652,14.755451,-366.52186)"
     id="path18" />
  <path
     inkscape:connector-curvature="0"
     style="fill:#bdbdbd;stroke:#ffffff;stroke-width:6.00092077"
     d="m 52.917,283.242 c 0,5.261 -3.83,12.166 -8.625,12.166 -4.795,0 -8.625,-6.905 -8.625,-12.166 0,-5.262 3.861,-9.518 8.625,-9.518 4.763,0 8.625,4.256 8.625,9.518 z"
     clip-path="url(#c)"
     transform="matrix(1.4339777,0,0,1.3882652,-24.475308,-364.31869)"
     id="path20" />
  <path
     inkscape:connector-curvature="0"
     style="fill:#2d2d2d;stroke-width:0.99999017"
     d="m 41.238149,28.160738 c 0,1.654812 -0.985142,3.839942 -2.201155,3.839942 -1.214579,0 -2.201155,-2.18513 -2.201155,-3.839942 0,-1.653424 0.986576,-2.15181 2.201155,-2.15181 1.216013,0 2.201155,0.498386 2.201155,2.15181 z"
     id="path22" />
  <path
     inkscape:connector-curvature="0"
     style="fill:none;stroke:#2d2d2d;stroke-width:2.09787703"
     d="m 61.383,253.608 c 0,5.262 -3.83,12.167 -8.625,12.167 -4.794,0 -8.624,-6.905 -8.624,-12.167 0,-5.261 3.861,-9.517 8.624,-9.517 4.764,0 8.625,4.256 8.625,9.517 z"
     clip-path="url(#d)"
     transform="matrix(1.4339777,0,0,1.3882652,-36.616794,-323.18023)"
     id="path24" />
</svg>
