<?xml version="1.0" encoding="UTF-8" standalone="no"?>
<!-- Created with Inkscape (http://www.inkscape.org/) -->

<svg
   xmlns:dc="http://purl.org/dc/elements/1.1/"
   xmlns:cc="http://creativecommons.org/ns#"
   xmlns:rdf="http://www.w3.org/1999/02/22-rdf-syntax-ns#"
   xmlns:svg="http://www.w3.org/2000/svg"
   xmlns="http://www.w3.org/2000/svg"
   xmlns:sodipodi="http://sodipodi.sourceforge.net/DTD/sodipodi-0.dtd"
   xmlns:inkscape="http://www.inkscape.org/namespaces/inkscape"
   width="160"
   height="160"
   viewBox="0 0 42.333333 42.333333"
   version="1.1"
   id="svg5"
   sodipodi:docname="rock_7.svg"
   inkscape:version="0.92.4 (5da689c313, 2019-01-14)">
  <metadata
     id="metadata20">
    <rdf:RDF>
      <cc:Work
         rdf:about="">
        <dc:format>image/svg+xml</dc:format>
        <dc:type
           rdf:resource="http://purl.org/dc/dcmitype/StillImage" />
        <dc:title></dc:title>
      </cc:Work>
    </rdf:RDF>
  </metadata>
  <sodipodi:namedview
     id="namedview12"
     pagecolor="#505050"
     bordercolor="#ffffff"
     borderopacity="1"
     inkscape:pageshadow="0"
     inkscape:pageopacity="0"
     inkscape:pagecheckerboard="1"
     inkscape:document-units="px"
     showgrid="false"
     inkscape:zoom="3.07945"
     inkscape:cx="25.451772"
     inkscape:cy="57.289961"
     inkscape:window-width="1920"
     inkscape:window-height="991"
     inkscape:window-x="-9"
     inkscape:window-y="-9"
     inkscape:window-maximized="1"
     inkscape:current-layer="svg5"
     units="px" />
  <defs
     id="defs2" />
  <path
     style="color:#000000;fill:#333333;stroke-width:1"
     d="m 18.55806,16.147373 -0.0084,-4.614828 -5.463799,-2.2237749 -1.200353,-5.2834602 -0.872045,0.2054398 1.710382,5.6059663 5.190932,2.23933 z"
     id="path861"
     sodipodi:nodetypes="cccccccc"
     inkscape:connector-curvature="0" />
  <path
     style="color:#000000;fill:#333333;stroke-width:1"
     d="m 13.223619,13.918393 -0.585757,-1.87295 0.659634,-2.015422 -0.573657,-0.193305 -0.756516,2.311697 z"
     id="path2821"
     sodipodi:nodetypes="cccccc"
     inkscape:connector-curvature="0" />
  <path
     style="color:#000000;fill:#333333;fill-opacity:1;stroke-width:1.55083001"
     d="M 28.882645,10.801284 27.70557,6.4153662 24.382236,4.707853 l 2.71685,2.1881258 z"
     id="path3378"
     sodipodi:nodetypes="ccccc"
     inkscape:connector-curvature="0" />
  <path
     style="color:#000000;fill:#333333;stroke-width:1"
     d="m 19.180847,40.940095 -1.83592,-4.04375 1.789411,-3.33967 -1.083059,3.374451 1.851924,3.512503 z"
     id="path4185"
     sodipodi:nodetypes="cccccc"
     inkscape:connector-curvature="0" />
  <path
     style="color:#000000;fill:#333333;stroke-width:1"
     d="m 26.434667,21.054772 1.649738,-1.182944 c 0.126812,-0.86825 0.487352,-2.515946 0.487352,-2.515946 l -0.955224,2.342691 -1.366441,0.966221 -2.217818,-0.813039 c 0,0 1.704561,0.947586 2.402389,1.203013 z"
     id="path5808"
     sodipodi:nodetypes="ccccccc"
     inkscape:connector-curvature="0" />
  <path
     style="color:#000000;fill:#333333;stroke-width:1"
     d="m 34.55352,35.574429 0.801037,-0.31123 -3.636868,-4.38273 1.7967,-3.832699 -4.495311,-1.445163 3.996382,1.627185 -1.732795,3.761675 z"
     id="path6486"
     sodipodi:nodetypes="cccccccc"
     inkscape:connector-curvature="0" />
  <path
     style="color:#000000;fill:#333333;stroke-width:1"
     d="m 15.451075,27.598638 -0.851238,2.083214 1.065386,-1.327486 2.380611,1.125477 z"
     id="path7332"
     sodipodi:nodetypes="ccccc"
     inkscape:connector-curvature="0" />
  <path
     inkscape:connector-curvature="0"
     style="fill:#b3b3b3;stroke:#2d2d2d;stroke-width:2.42400002"
     d="m 24.855181,1.6661177 c 3.358102,0.5711234 7.364397,2.0884864 10.48152,5.4127174 3.117122,3.3231049 5.343956,8.4542029 5.593861,13.7655379 0.25102,5.310209 -1.474887,10.799529 -4.838568,14.342296 C 32.72943,38.729438 27.73021,40.3234 22.971966,40.576857 18.21261,40.829191 13.696465,39.741012 10.435425,37.931892 7.174384,36.12277 5.1717955,33.594957 3.8977246,30.920701 2.6236537,28.247575 2.0792178,25.429132 2.0156254,22.330195 1.9531467,19.23126 2.3692857,15.850704 3.7002544,12.861037 5.0312231,9.8724967 7.2703296,7.2782212 9.4871225,5.5074012 11.702802,3.7365806 13.892821,2.789214 16.341668,2.1290995 18.7894,1.4689844 21.498195,1.0949941 24.855181,1.6672443 Z"
     id="path2" />
  <path
     inkscape:connector-curvature="0"
     style="fill:#cacaca;stroke-width:1"
     d="m 32.699305,15.636673 c 0.05354,3.523618 -2.15097,6.133664 -6.001072,6.133664 -3.848987,0 -7.672315,-2.821823 -6.969455,-6.133664 0.670503,-3.163144 3.257692,-6.173089 6.001073,-6.1347881 4.567464,0.061946 6.923713,3.1011891 6.969454,6.1347881 z"
     id="path4" />
  <path
     inkscape:connector-curvature="0"
     style="color:#000000;fill:#333333;stroke-width:1"
     d="M 18.55806,16.147373 18.54966,11.532545 13.085861,9.3087701 11.885508,4.02531 l -0.872045,0.2054398 1.710382,5.6059662 5.190932,2.23933 z"
     id="path861-8"
     sodipodi:nodetypes="cccccccc" />
  <path
     inkscape:connector-curvature="0"
     style="color:#000000;fill:#333333;stroke-width:1"
     d="m 13.223619,13.918393 -0.585757,-1.87295 0.659634,-2.015422 -0.573657,-0.193305 -0.756516,2.311697 z"
     id="path2821-6"
     sodipodi:nodetypes="cccccc" />
  <path
     inkscape:connector-curvature="0"
     style="color:#000000;fill:#333333;fill-opacity:1;stroke-width:1.55083001"
     d="M 28.882644,10.801285 27.70557,6.4153662 24.382236,4.707853 l 2.71685,2.1881258 z"
     id="path3378-1"
     sodipodi:nodetypes="ccccc" />
  <path
     inkscape:connector-curvature="0"
     style="color:#000000;fill:#333333;stroke-width:1"
     d="m 26.434667,21.054772 1.649738,-1.182944 c 0.126812,-0.86825 0.487352,-2.515946 0.487352,-2.515946 l -0.955224,2.342691 -1.366441,0.966221 -2.217818,-0.813039 c 0,0 1.704561,0.947586 2.402389,1.203013 z"
     id="path5808-0"
     sodipodi:nodetypes="ccccccc" />
  <path
     inkscape:connector-curvature="0"
     style="color:#000000;fill:#333333;stroke-width:1"
     d="m 34.55352,35.574429 0.801037,-0.31123 -3.636868,-4.38273 1.7967,-3.832699 -4.495311,-1.445163 3.996382,1.627185 -1.732795,3.761676 z"
     id="path6486-5"
     sodipodi:nodetypes="cccccccc" />
  <path
     inkscape:connector-curvature="0"
     style="color:#000000;fill:#333333;stroke-width:1"
     d="m 19.004212,39.987973 -1.83592,-4.043749 1.789412,-3.339671 -1.083059,3.374451 1.851924,3.512503 z"
     id="path4185-5"
     sodipodi:nodetypes="cccccc" />
  <path
     inkscape:connector-curvature="0"
     style="color:#000000;fill:#333333;stroke-width:1"
     d="m 15.451075,27.598638 -0.851238,2.083214 1.065386,-1.327486 2.380611,1.125477 z"
     id="path7332-4"
     sodipodi:nodetypes="ccccc" />
</svg>
